  0
SECTION
  2
HEADER
  9
$ACADVER
  1
AC1009
  9
$FILLMODE
 70
1
  9
$EXTMIN
 10
-1.7621
 20
-1.8621
 30
0.0000
  9
$EXTMAX
 10
99.7549
 20
45.0621
 30
0.0000
  0
ENDSEC
  0
SECTION
  2
TABLES
  0
TABLE
  2
LTYPE
 70
1
  0
LTYPE
  2
CONTINUOUS
 70
64
  3
Solid line
 72
65
 73
0
 40
0
  0
ENDTAB
  0
TABLE
  2
LAYER
 70
255
  0
LAYER
  2
17
 70
64
 62
82
  6
CONTINUOUS
  0
LAYER
  2
18
 70
64
 62
82
  6
CONTINUOUS
  0
LAYER
  2
19
 70
64
 62
53
  6
CONTINUOUS
  0
LAYER
  2
20
 70
64
 62
7
  6
CONTINUOUS
  0
LAYER
  2
45
 70
64
 62
253
  6
CONTINUOUS
  0
ENDTAB
  0
ENDSEC
  0
SECTION
  2
BLOCKS
  0
BLOCK
  8
0
  2
RECT
 70
64
 10
0.0000
 20
0.0000
 30
0.0000
  3
RECT
  0
SOLID
  8
0
 10
-0.5000
 20
-0.5000
 30
0.0000
 11
0.5000
 21
-0.5000
 31
0.0000
 12
-0.5000
 22
0.5000
 32
0.0000
 13
0.5000
 23
0.5000
 33
0.0000
  0
ENDBLK
  8
0
  0
BLOCK
  8
0
  2
PIE
 70
64
 10
0.0000
 20
0.0000
 30
0.0000
  3
PIE
  0
POLYLINE
  8
0
 66
1
 10
0.0000
 20
0.0000
 30
0.0000
 40
0.5000
 41
0.5000
 70
0
  0
VERTEX
  8
0
 10
0.0000
 20
-0.2500
 30
0.0000
 42
1.0000
  0
VERTEX
  8
0
 10
0.0000
 20
0.2500
 30
0.0000
 42
1.0000
  0
VERTEX
  8
0
 10
0.0000
 20
-0.2500
 30
0.0000
  0
SEQEND
  8
0
  0
ENDBLK
  8
0
  0
BLOCK
  8
0
  2
OCTAGONP
 70
64
 10
0.0000
 20
0.0000
 30
0.0000
  3
OCTAGONP
  0
POLYLINE
  8
0
 66
1
 10
0.0000
 20
0.0000
 30
0.0000
 40
0.5000
 41
0.5000
 70
0
  0
VERTEX
  8
0
 10
-0.2500
 20
-0.1036
 30
0.0000
  0
VERTEX
  8
0
 10
-0.2500
 20
0.1036
 30
0.0000
  0
VERTEX
  8
0
 10
-0.1036
 20
0.2500
 30
0.0000
  0
VERTEX
  8
0
 10
0.1036
 20
0.2500
 30
0.0000
  0
VERTEX
  8
0
 10
0.2500
 20
0.1036
 30
0.0000
  0
VERTEX
  8
0
 10
0.2500
 20
-0.1036
 30
0.0000
  0
VERTEX
  8
0
 10
0.1036
 20
-0.2500
 30
0.0000
  0
VERTEX
  8
0
 10
-0.1036
 20
-0.2500
 30
0.0000
  0
VERTEX
  8
0
 10
-0.2500
 20
-0.1036
 30
0.0000
  0
VERTEX
  8
0
 10
-0.2500
 20
0.1036
 30
0.0000
  0
SEQEND
  8
0
  0
ENDBLK
  8
0
  0
BLOCK
  8
0
  2
SQUAREP
 70
64
 10
0.0000
 20
0.0000
 30
0.0000
  3
SQUAREP
  0
SOLID
  8
0
 10
-0.5000
 20
-0.5000
 30
0.0000
 11
0.5000
 21
-0.5000
 31
0.0000
 12
-0.5000
 22
0.5000
 32
0.0000
 13
0.5000
 23
0.5000
 33
0.0000
  0
ENDBLK
  8
0
  0
BLOCK
  8
0
  2
ROUNDP
 70
64
 10
0.0000
 20
0.0000
 30
0.0000
  3
ROUNDP
  0
POLYLINE
  8
0
 66
1
 10
0.0000
 20
0.0000
 30
0.0000
 40
0.5000
 41
0.5000
 70
0
  0
VERTEX
  8
0
 10
0.0000
 20
-0.2500
 30
0.0000
 42
1.0000
  0
VERTEX
  8
0
 10
0.0000
 20
0.2500
 30
0.0000
 42
1.0000
  0
VERTEX
  8
0
 10
0.0000
 20
-0.2500
 30
0.0000
  0
SEQEND
  8
0
  0
ENDBLK
  8
0
  0
BLOCK
  8
0
  2
ANNULUSP
 70
64
 10
0.0000
 20
0.0000
 30
0.0000
  3
ANNULUSP
  0
POLYLINE
  8
0
 66
1
 10
0.0000
 20
0.0000
 30
0.0000
 40
0.5000
 41
0.5000
 70
0
  0
VERTEX
  8
0
 10
0.0000
 20
-0.2500
 30
0.0000
 42
1.0000
  0
VERTEX
  8
0
 10
0.0000
 20
0.2500
 30
0.0000
 42
1.0000
  0
VERTEX
  8
0
 10
0.0000
 20
-0.2500
 30
0.0000
  0
SEQEND
  8
0
  0
ENDBLK
  8
0
  0
BLOCK
  8
0
  2
THERMALP
 70
64
 10
0.0000
 20
0.0000
 30
0.0000
  3
THERMALP
  0
POLYLINE
  8
0
 66
1
 10
0.0000
 20
0.0000
 30
0.0000
 40
0.1000
 41
0.1000
 70
0
  0
VERTEX
  8
0
 10
-0.2379
 20
0.4500
 30
0.0000
  0
VERTEX
  8
0
 10
0.2379
 20
0.4500
 30
0.0000
  0
SEQEND
  8
0
  0
POLYLINE
  8
0
 66
1
 10
0.0000
 20
0.0000
 30
0.0000
 40
0.0500
 41
0.0500
 70
0
  0
VERTEX
  8
0
 10
0.2379
 20
0.4250
 30
0.0000
 42
1.0000
  0
VERTEX
  8
0
 10
0.2379
 20
0.4750
 30
0.0000
  0
SEQEND
  8
0
  0
POLYLINE
  8
0
 66
1
 10
0.0000
 20
0.0000
 30
0.0000
 40
0.0500
 41
0.0500
 70
0
  0
VERTEX
  8
0
 10
-0.2379
 20
0.4750
 30
0.0000
 42
1.0000
  0
VERTEX
  8
0
 10
-0.2379
 20
0.4250
 30
0.0000
  0
SEQEND
  8
0
  0
POLYLINE
  8
0
 66
1
 10
0.0000
 20
0.0000
 30
0.0000
 40
0.1000
 41
0.1000
 70
0
  0
VERTEX
  8
0
 10
0.4500
 20
0.2379
 30
0.0000
  0
VERTEX
  8
0
 10
0.4500
 20
-0.2379
 30
0.0000
  0
SEQEND
  8
0
  0
POLYLINE
  8
0
 66
1
 10
0.0000
 20
0.0000
 30
0.0000
 40
0.0500
 41
0.0500
 70
0
  0
VERTEX
  8
0
 10
0.4250
 20
-0.2379
 30
0.0000
 42
1.0000
  0
VERTEX
  8
0
 10
0.4750
 20
-0.2379
 30
0.0000
  0
SEQEND
  8
0
  0
POLYLINE
  8
0
 66
1
 10
0.0000
 20
0.0000
 30
0.0000
 40
0.0500
 41
0.0500
 70
0
  0
VERTEX
  8
0
 10
0.4750
 20
0.2379
 30
0.0000
 42
1.0000
  0
VERTEX
  8
0
 10
0.4250
 20
0.2379
 30
0.0000
  0
SEQEND
  8
0
  0
POLYLINE
  8
0
 66
1
 10
0.0000
 20
0.0000
 30
0.0000
 40
0.1000
 41
0.1000
 70
0
  0
VERTEX
  8
0
 10
0.2379
 20
-0.4500
 30
0.0000
  0
VERTEX
  8
0
 10
-0.2379
 20
-0.4500
 30
0.0000
  0
SEQEND
  8
0
  0
POLYLINE
  8
0
 66
1
 10
0.0000
 20
0.0000
 30
0.0000
 40
0.0500
 41
0.0500
 70
0
  0
VERTEX
  8
0
 10
-0.2379
 20
-0.4250
 30
0.0000
 42
1.0000
  0
VERTEX
  8
0
 10
-0.2379
 20
-0.4750
 30
0.0000
  0
SEQEND
  8
0
  0
POLYLINE
  8
0
 66
1
 10
0.0000
 20
0.0000
 30
0.0000
 40
0.0500
 41
0.0500
 70
0
  0
VERTEX
  8
0
 10
0.2379
 20
-0.4750
 30
0.0000
 42
1.0000
  0
VERTEX
  8
0
 10
0.2379
 20
-0.4250
 30
0.0000
  0
SEQEND
  8
0
  0
POLYLINE
  8
0
 66
1
 10
0.0000
 20
0.0000
 30
0.0000
 40
0.1000
 41
0.1000
 70
0
  0
VERTEX
  8
0
 10
-0.4500
 20
-0.2379
 30
0.0000
  0
VERTEX
  8
0
 10
-0.4500
 20
0.2379
 30
0.0000
  0
SEQEND
  8
0
  0
POLYLINE
  8
0
 66
1
 10
0.0000
 20
0.0000
 30
0.0000
 40
0.0500
 41
0.0500
 70
0
  0
VERTEX
  8
0
 10
-0.4250
 20
0.2379
 30
0.0000
 42
1.0000
  0
VERTEX
  8
0
 10
-0.4750
 20
0.2379
 30
0.0000
  0
SEQEND
  8
0
  0
POLYLINE
  8
0
 66
1
 10
0.0000
 20
0.0000
 30
0.0000
 40
0.0500
 41
0.0500
 70
0
  0
VERTEX
  8
0
 10
-0.4750
 20
-0.2379
 30
0.0000
 42
1.0000
  0
VERTEX
  8
0
 10
-0.4250
 20
-0.2379
 30
0.0000
  0
SEQEND
  8
0
  0
ENDBLK
  8
0
  0
BLOCK
  8
0
  2
OCTAGONV
 70
64
 10
0.0000
 20
0.0000
 30
0.0000
  3
OCTAGONV
  0
POLYLINE
  8
0
 66
1
 10
0.0000
 20
0.0000
 30
0.0000
 40
0.5000
 41
0.5000
 70
0
  0
VERTEX
  8
0
 10
-0.2500
 20
-0.1036
 30
0.0000
  0
VERTEX
  8
0
 10
-0.2500
 20
0.1036
 30
0.0000
  0
VERTEX
  8
0
 10
-0.1036
 20
0.2500
 30
0.0000
  0
VERTEX
  8
0
 10
0.1036
 20
0.2500
 30
0.0000
  0
VERTEX
  8
0
 10
0.2500
 20
0.1036
 30
0.0000
  0
VERTEX
  8
0
 10
0.2500
 20
-0.1036
 30
0.0000
  0
VERTEX
  8
0
 10
0.1036
 20
-0.2500
 30
0.0000
  0
VERTEX
  8
0
 10
-0.1036
 20
-0.2500
 30
0.0000
  0
VERTEX
  8
0
 10
-0.2500
 20
-0.1036
 30
0.0000
  0
VERTEX
  8
0
 10
-0.2500
 20
0.1036
 30
0.0000
  0
SEQEND
  8
0
  0
ENDBLK
  8
0
  0
BLOCK
  8
0
  2
SQUAREV
 70
64
 10
0.0000
 20
0.0000
 30
0.0000
  3
SQUAREV
  0
SOLID
  8
0
 10
-0.5000
 20
-0.5000
 30
0.0000
 11
0.5000
 21
-0.5000
 31
0.0000
 12
-0.5000
 22
0.5000
 32
0.0000
 13
0.5000
 23
0.5000
 33
0.0000
  0
ENDBLK
  8
0
  0
BLOCK
  8
0
  2
ROUNDV
 70
64
 10
0.0000
 20
0.0000
 30
0.0000
  3
ROUNDV
  0
POLYLINE
  8
0
 66
1
 10
0.0000
 20
0.0000
 30
0.0000
 40
0.5000
 41
0.5000
 70
0
  0
VERTEX
  8
0
 10
0.0000
 20
-0.2500
 30
0.0000
 42
1.0000
  0
VERTEX
  8
0
 10
0.0000
 20
0.2500
 30
0.0000
 42
1.0000
  0
VERTEX
  8
0
 10
0.0000
 20
-0.2500
 30
0.0000
  0
SEQEND
  8
0
  0
ENDBLK
  8
0
  0
BLOCK
  8
0
  2
ANNULUSV
 70
64
 10
0.0000
 20
0.0000
 30
0.0000
  3
ANNULUSV
  0
POLYLINE
  8
0
 66
1
 10
0.0000
 20
0.0000
 30
0.0000
 40
0.5000
 41
0.5000
 70
0
  0
VERTEX
  8
0
 10
0.0000
 20
-0.2500
 30
0.0000
 42
1.0000
  0
VERTEX
  8
0
 10
0.0000
 20
0.2500
 30
0.0000
 42
1.0000
  0
VERTEX
  8
0
 10
0.0000
 20
-0.2500
 30
0.0000
  0
SEQEND
  8
0
  0
ENDBLK
  8
0
  0
BLOCK
  8
0
  2
THERMALV
 70
64
 10
0.0000
 20
0.0000
 30
0.0000
  3
THERMALV
  0
POLYLINE
  8
0
 66
1
 10
0.0000
 20
0.0000
 30
0.0000
 40
0.1000
 41
0.1000
 70
0
  0
VERTEX
  8
0
 10
-0.2379
 20
0.4500
 30
0.0000
  0
VERTEX
  8
0
 10
0.2379
 20
0.4500
 30
0.0000
  0
SEQEND
  8
0
  0
POLYLINE
  8
0
 66
1
 10
0.0000
 20
0.0000
 30
0.0000
 40
0.0500
 41
0.0500
 70
0
  0
VERTEX
  8
0
 10
0.2379
 20
0.4250
 30
0.0000
 42
1.0000
  0
VERTEX
  8
0
 10
0.2379
 20
0.4750
 30
0.0000
  0
SEQEND
  8
0
  0
POLYLINE
  8
0
 66
1
 10
0.0000
 20
0.0000
 30
0.0000
 40
0.0500
 41
0.0500
 70
0
  0
VERTEX
  8
0
 10
-0.2379
 20
0.4750
 30
0.0000
 42
1.0000
  0
VERTEX
  8
0
 10
-0.2379
 20
0.4250
 30
0.0000
  0
SEQEND
  8
0
  0
POLYLINE
  8
0
 66
1
 10
0.0000
 20
0.0000
 30
0.0000
 40
0.1000
 41
0.1000
 70
0
  0
VERTEX
  8
0
 10
0.4500
 20
0.2379
 30
0.0000
  0
VERTEX
  8
0
 10
0.4500
 20
-0.2379
 30
0.0000
  0
SEQEND
  8
0
  0
POLYLINE
  8
0
 66
1
 10
0.0000
 20
0.0000
 30
0.0000
 40
0.0500
 41
0.0500
 70
0
  0
VERTEX
  8
0
 10
0.4250
 20
-0.2379
 30
0.0000
 42
1.0000
  0
VERTEX
  8
0
 10
0.4750
 20
-0.2379
 30
0.0000
  0
SEQEND
  8
0
  0
POLYLINE
  8
0
 66
1
 10
0.0000
 20
0.0000
 30
0.0000
 40
0.0500
 41
0.0500
 70
0
  0
VERTEX
  8
0
 10
0.4750
 20
0.2379
 30
0.0000
 42
1.0000
  0
VERTEX
  8
0
 10
0.4250
 20
0.2379
 30
0.0000
  0
SEQEND
  8
0
  0
POLYLINE
  8
0
 66
1
 10
0.0000
 20
0.0000
 30
0.0000
 40
0.1000
 41
0.1000
 70
0
  0
VERTEX
  8
0
 10
0.2379
 20
-0.4500
 30
0.0000
  0
VERTEX
  8
0
 10
-0.2379
 20
-0.4500
 30
0.0000
  0
SEQEND
  8
0
  0
POLYLINE
  8
0
 66
1
 10
0.0000
 20
0.0000
 30
0.0000
 40
0.0500
 41
0.0500
 70
0
  0
VERTEX
  8
0
 10
-0.2379
 20
-0.4250
 30
0.0000
 42
1.0000
  0
VERTEX
  8
0
 10
-0.2379
 20
-0.4750
 30
0.0000
  0
SEQEND
  8
0
  0
POLYLINE
  8
0
 66
1
 10
0.0000
 20
0.0000
 30
0.0000
 40
0.0500
 41
0.0500
 70
0
  0
VERTEX
  8
0
 10
0.2379
 20
-0.4750
 30
0.0000
 42
1.0000
  0
VERTEX
  8
0
 10
0.2379
 20
-0.4250
 30
0.0000
  0
SEQEND
  8
0
  0
POLYLINE
  8
0
 66
1
 10
0.0000
 20
0.0000
 30
0.0000
 40
0.1000
 41
0.1000
 70
0
  0
VERTEX
  8
0
 10
-0.4500
 20
-0.2379
 30
0.0000
  0
VERTEX
  8
0
 10
-0.4500
 20
0.2379
 30
0.0000
  0
SEQEND
  8
0
  0
POLYLINE
  8
0
 66
1
 10
0.0000
 20
0.0000
 30
0.0000
 40
0.0500
 41
0.0500
 70
0
  0
VERTEX
  8
0
 10
-0.4250
 20
0.2379
 30
0.0000
 42
1.0000
  0
VERTEX
  8
0
 10
-0.4750
 20
0.2379
 30
0.0000
  0
SEQEND
  8
0
  0
POLYLINE
  8
0
 66
1
 10
0.0000
 20
0.0000
 30
0.0000
 40
0.0500
 41
0.0500
 70
0
  0
VERTEX
  8
0
 10
-0.4750
 20
-0.2379
 30
0.0000
 42
1.0000
  0
VERTEX
  8
0
 10
-0.4250
 20
-0.2379
 30
0.0000
  0
SEQEND
  8
0
  0
ENDBLK
  8
0
  0
BLOCK
  8
0
  2
LONGP100
 70
64
 10
0.0000
 20
0.0000
 30
0.0000
  3
LONGP100
  0
POLYLINE
  8
0
 66
1
 10
0.0000
 20
0.0000
 30
0.0000
 40
1.0000
 41
1.0000
 70
0
  0
VERTEX
  8
0
 10
-0.5000
 20
0.0000
 30
0.0000
  0
VERTEX
  8
0
 10
0.5000
 20
0.0000
 30
0.0000
  0
SEQEND
  8
0
  0
POLYLINE
  8
0
 66
1
 10
0.0000
 20
0.0000
 30
0.0000
 40
0.5000
 41
0.5000
 70
0
  0
VERTEX
  8
0
 10
0.5000
 20
-0.2500
 30
0.0000
 42
1.0000
  0
VERTEX
  8
0
 10
0.5000
 20
0.2500
 30
0.0000
  0
SEQEND
  8
0
  0
POLYLINE
  8
0
 66
1
 10
0.0000
 20
0.0000
 30
0.0000
 40
0.5000
 41
0.5000
 70
0
  0
VERTEX
  8
0
 10
-0.5000
 20
0.2500
 30
0.0000
 42
1.0000
  0
VERTEX
  8
0
 10
-0.5000
 20
-0.2500
 30
0.0000
  0
SEQEND
  8
0
  0
ENDBLK
  8
0
  0
ENDSEC
  0
SECTION
  2
ENTITIES
  0
POLYLINE
  8
20
 66
1
 10
0.0000
 20
0.0000
 30
0.0000
 40
0.3048
 41
0.3048
 70
0
  0
VERTEX
  8
20
 10
0.0000
 20
6.2000
 30
0.0000
 42
0.4142
  0
VERTEX
  8
20
 10
6.2000
 20
0.0000
 30
0.0000
  0
SEQEND
  8
0
  0
POLYLINE
  8
20
 66
1
 10
0.0000
 20
0.0000
 30
0.0000
 40
0.1524
 41
0.1524
 70
0
  0
VERTEX
  8
20
 10
0.0762
 20
6.2000
 30
0.0000
 42
1.0000
  0
VERTEX
  8
20
 10
-0.0762
 20
6.2000
 30
0.0000
  0
SEQEND
  8
0
  0
POLYLINE
  8
20
 66
1
 10
0.0000
 20
0.0000
 30
0.0000
 40
0.1524
 41
0.1524
 70
0
  0
VERTEX
  8
20
 10
6.2000
 20
-0.0762
 30
0.0000
 42
1.0000
  0
VERTEX
  8
20
 10
6.2000
 20
0.0762
 30
0.0000
  0
SEQEND
  8
0
  0
POLYLINE
  8
20
 66
1
 10
0.0000
 20
0.0000
 30
0.0000
 40
0.3048
 41
0.3048
 70
0
  0
VERTEX
  8
20
 10
6.2000
 20
43.2000
 30
0.0000
 42
0.4142
  0
VERTEX
  8
20
 10
0.0000
 20
37.0000
 30
0.0000
  0
SEQEND
  8
0
  0
POLYLINE
  8
20
 66
1
 10
0.0000
 20
0.0000
 30
0.0000
 40
0.1524
 41
0.1524
 70
0
  0
VERTEX
  8
20
 10
6.2000
 20
43.1238
 30
0.0000
 42
1.0000
  0
VERTEX
  8
20
 10
6.2000
 20
43.2762
 30
0.0000
  0
SEQEND
  8
0
  0
POLYLINE
  8
20
 66
1
 10
0.0000
 20
0.0000
 30
0.0000
 40
0.1524
 41
0.1524
 70
0
  0
VERTEX
  8
20
 10
-0.0762
 20
37.0000
 30
0.0000
 42
1.0000
  0
VERTEX
  8
20
 10
0.0762
 20
37.0000
 30
0.0000
  0
SEQEND
  8
0
  0
POLYLINE
  8
20
 66
1
 10
0.0000
 20
0.0000
 30
0.0000
 40
0.3048
 41
0.3048
 70
0
  0
VERTEX
  8
20
 10
80.0000
 20
37.0000
 30
0.0000
 42
0.4142
  0
VERTEX
  8
20
 10
73.8000
 20
43.2000
 30
0.0000
  0
SEQEND
  8
0
  0
POLYLINE
  8
20
 66
1
 10
0.0000
 20
0.0000
 30
0.0000
 40
0.1524
 41
0.1524
 70
0
  0
VERTEX
  8
20
 10
79.9238
 20
37.0000
 30
0.0000
 42
1.0000
  0
VERTEX
  8
20
 10
80.0762
 20
37.0000
 30
0.0000
  0
SEQEND
  8
0
  0
POLYLINE
  8
20
 66
1
 10
0.0000
 20
0.0000
 30
0.0000
 40
0.1524
 41
0.1524
 70
0
  0
VERTEX
  8
20
 10
73.8000
 20
43.2762
 30
0.0000
 42
1.0000
  0
VERTEX
  8
20
 10
73.8000
 20
43.1238
 30
0.0000
  0
SEQEND
  8
0
  0
POLYLINE
  8
20
 66
1
 10
0.0000
 20
0.0000
 30
0.0000
 40
0.3048
 41
0.3048
 70
0
  0
VERTEX
  8
20
 10
73.8000
 20
0.0000
 30
0.0000
 42
0.4142
  0
VERTEX
  8
20
 10
80.0000
 20
6.2000
 30
0.0000
  0
SEQEND
  8
0
  0
POLYLINE
  8
20
 66
1
 10
0.0000
 20
0.0000
 30
0.0000
 40
0.1524
 41
0.1524
 70
0
  0
VERTEX
  8
20
 10
73.8000
 20
0.0762
 30
0.0000
 42
1.0000
  0
VERTEX
  8
20
 10
73.8000
 20
-0.0762
 30
0.0000
  0
SEQEND
  8
0
  0
POLYLINE
  8
20
 66
1
 10
0.0000
 20
0.0000
 30
0.0000
 40
0.1524
 41
0.1524
 70
0
  0
VERTEX
  8
20
 10
80.0762
 20
6.2000
 30
0.0000
 42
1.0000
  0
VERTEX
  8
20
 10
79.9238
 20
6.2000
 30
0.0000
  0
SEQEND
  8
0
  0
POLYLINE
  8
20
 66
1
 10
0.0000
 20
0.0000
 30
0.0000
 40
0.3048
 41
0.3048
 70
0
  0
VERTEX
  8
20
 10
73.8000
 20
0.0000
 30
0.0000
  0
VERTEX
  8
20
 10
6.2000
 20
0.0000
 30
0.0000
  0
SEQEND
  8
0
  0
POLYLINE
  8
20
 66
1
 10
0.0000
 20
0.0000
 30
0.0000
 40
0.1524
 41
0.1524
 70
0
  0
VERTEX
  8
20
 10
6.2000
 20
0.0762
 30
0.0000
 42
1.0000
  0
VERTEX
  8
20
 10
6.2000
 20
-0.0762
 30
0.0000
  0
SEQEND
  8
0
  0
POLYLINE
  8
20
 66
1
 10
0.0000
 20
0.0000
 30
0.0000
 40
0.1524
 41
0.1524
 70
0
  0
VERTEX
  8
20
 10
73.8000
 20
-0.0762
 30
0.0000
 42
1.0000
  0
VERTEX
  8
20
 10
73.8000
 20
0.0762
 30
0.0000
  0
SEQEND
  8
0
  0
POLYLINE
  8
20
 66
1
 10
0.0000
 20
0.0000
 30
0.0000
 40
0.3048
 41
0.3048
 70
0
  0
VERTEX
  8
20
 10
0.0000
 20
6.2000
 30
0.0000
  0
VERTEX
  8
20
 10
0.0000
 20
37.0000
 30
0.0000
  0
SEQEND
  8
0
  0
POLYLINE
  8
20
 66
1
 10
0.0000
 20
0.0000
 30
0.0000
 40
0.1524
 41
0.1524
 70
0
  0
VERTEX
  8
20
 10
0.0762
 20
37.0000
 30
0.0000
 42
1.0000
  0
VERTEX
  8
20
 10
-0.0762
 20
37.0000
 30
0.0000
  0
SEQEND
  8
0
  0
POLYLINE
  8
20
 66
1
 10
0.0000
 20
0.0000
 30
0.0000
 40
0.1524
 41
0.1524
 70
0
  0
VERTEX
  8
20
 10
-0.0762
 20
6.2000
 30
0.0000
 42
1.0000
  0
VERTEX
  8
20
 10
0.0762
 20
6.2000
 30
0.0000
  0
SEQEND
  8
0
  0
POLYLINE
  8
20
 66
1
 10
0.0000
 20
0.0000
 30
0.0000
 40
0.3048
 41
0.3048
 70
0
  0
VERTEX
  8
20
 10
6.2000
 20
43.2000
 30
0.0000
  0
VERTEX
  8
20
 10
73.8000
 20
43.2000
 30
0.0000
  0
SEQEND
  8
0
  0
POLYLINE
  8
20
 66
1
 10
0.0000
 20
0.0000
 30
0.0000
 40
0.1524
 41
0.1524
 70
0
  0
VERTEX
  8
20
 10
73.8000
 20
43.1238
 30
0.0000
 42
1.0000
  0
VERTEX
  8
20
 10
73.8000
 20
43.2762
 30
0.0000
  0
SEQEND
  8
0
  0
POLYLINE
  8
20
 66
1
 10
0.0000
 20
0.0000
 30
0.0000
 40
0.1524
 41
0.1524
 70
0
  0
VERTEX
  8
20
 10
6.2000
 20
43.2762
 30
0.0000
 42
1.0000
  0
VERTEX
  8
20
 10
6.2000
 20
43.1238
 30
0.0000
  0
SEQEND
  8
0
  0
POLYLINE
  8
20
 66
1
 10
0.0000
 20
0.0000
 30
0.0000
 40
0.3048
 41
0.3048
 70
0
  0
VERTEX
  8
20
 10
83.0000
 20
6.6000
 30
0.0000
 42
0.4142
  0
VERTEX
  8
20
 10
89.0000
 20
0.6000
 30
0.0000
  0
SEQEND
  8
0
  0
POLYLINE
  8
20
 66
1
 10
0.0000
 20
0.0000
 30
0.0000
 40
0.1524
 41
0.1524
 70
0
  0
VERTEX
  8
20
 10
83.0762
 20
6.6000
 30
0.0000
 42
1.0000
  0
VERTEX
  8
20
 10
82.9238
 20
6.6000
 30
0.0000
  0
SEQEND
  8
0
  0
POLYLINE
  8
20
 66
1
 10
0.0000
 20
0.0000
 30
0.0000
 40
0.1524
 41
0.1524
 70
0
  0
VERTEX
  8
20
 10
89.0000
 20
0.5238
 30
0.0000
 42
1.0000
  0
VERTEX
  8
20
 10
89.0000
 20
0.6762
 30
0.0000
  0
SEQEND
  8
0
  0
POLYLINE
  8
20
 66
1
 10
0.0000
 20
0.0000
 30
0.0000
 40
0.3048
 41
0.3048
 70
0
  0
VERTEX
  8
20
 10
89.0000
 20
0.6000
 30
0.0000
 42
0.4142
  0
VERTEX
  8
20
 10
95.0000
 20
6.6000
 30
0.0000
  0
SEQEND
  8
0
  0
POLYLINE
  8
20
 66
1
 10
0.0000
 20
0.0000
 30
0.0000
 40
0.1524
 41
0.1524
 70
0
  0
VERTEX
  8
20
 10
89.0000
 20
0.6762
 30
0.0000
 42
1.0000
  0
VERTEX
  8
20
 10
89.0000
 20
0.5238
 30
0.0000
  0
SEQEND
  8
0
  0
POLYLINE
  8
20
 66
1
 10
0.0000
 20
0.0000
 30
0.0000
 40
0.1524
 41
0.1524
 70
0
  0
VERTEX
  8
20
 10
95.0762
 20
6.6000
 30
0.0000
 42
1.0000
  0
VERTEX
  8
20
 10
94.9238
 20
6.6000
 30
0.0000
  0
SEQEND
  8
0
  0
POLYLINE
  8
20
 66
1
 10
0.0000
 20
0.0000
 30
0.0000
 40
0.3048
 41
0.3048
 70
0
  0
VERTEX
  8
20
 10
89.0000
 20
42.6000
 30
0.0000
 42
0.4142
  0
VERTEX
  8
20
 10
83.0000
 20
36.6000
 30
0.0000
  0
SEQEND
  8
0
  0
POLYLINE
  8
20
 66
1
 10
0.0000
 20
0.0000
 30
0.0000
 40
0.1524
 41
0.1524
 70
0
  0
VERTEX
  8
20
 10
89.0000
 20
42.5238
 30
0.0000
 42
1.0000
  0
VERTEX
  8
20
 10
89.0000
 20
42.6762
 30
0.0000
  0
SEQEND
  8
0
  0
POLYLINE
  8
20
 66
1
 10
0.0000
 20
0.0000
 30
0.0000
 40
0.1524
 41
0.1524
 70
0
  0
VERTEX
  8
20
 10
82.9238
 20
36.6000
 30
0.0000
 42
1.0000
  0
VERTEX
  8
20
 10
83.0762
 20
36.6000
 30
0.0000
  0
SEQEND
  8
0
  0
POLYLINE
  8
20
 66
1
 10
0.0000
 20
0.0000
 30
0.0000
 40
0.3048
 41
0.3048
 70
0
  0
VERTEX
  8
20
 10
95.0000
 20
36.6000
 30
0.0000
 42
0.4142
  0
VERTEX
  8
20
 10
89.0000
 20
42.6000
 30
0.0000
  0
SEQEND
  8
0
  0
POLYLINE
  8
20
 66
1
 10
0.0000
 20
0.0000
 30
0.0000
 40
0.1524
 41
0.1524
 70
0
  0
VERTEX
  8
20
 10
94.9238
 20
36.6000
 30
0.0000
 42
1.0000
  0
VERTEX
  8
20
 10
95.0762
 20
36.6000
 30
0.0000
  0
SEQEND
  8
0
  0
POLYLINE
  8
20
 66
1
 10
0.0000
 20
0.0000
 30
0.0000
 40
0.1524
 41
0.1524
 70
0
  0
VERTEX
  8
20
 10
89.0000
 20
42.6762
 30
0.0000
 42
1.0000
  0
VERTEX
  8
20
 10
89.0000
 20
42.5238
 30
0.0000
  0
SEQEND
  8
0
  0
POLYLINE
  8
20
 66
1
 10
0.0000
 20
0.0000
 30
0.0000
 40
0.3048
 41
0.3048
 70
0
  0
VERTEX
  8
20
 10
99.6000
 20
19.8000
 30
0.0000
  0
VERTEX
  8
20
 10
99.6000
 20
23.4000
 30
0.0000
  0
SEQEND
  8
0
  0
POLYLINE
  8
20
 66
1
 10
0.0000
 20
0.0000
 30
0.0000
 40
0.1524
 41
0.1524
 70
0
  0
VERTEX
  8
20
 10
99.6762
 20
23.4000
 30
0.0000
 42
1.0000
  0
VERTEX
  8
20
 10
99.5238
 20
23.4000
 30
0.0000
  0
SEQEND
  8
0
  0
POLYLINE
  8
20
 66
1
 10
0.0000
 20
0.0000
 30
0.0000
 40
0.1524
 41
0.1524
 70
0
  0
VERTEX
  8
20
 10
99.5238
 20
19.8000
 30
0.0000
 42
1.0000
  0
VERTEX
  8
20
 10
99.6762
 20
19.8000
 30
0.0000
  0
SEQEND
  8
0
  0
POLYLINE
  8
20
 66
1
 10
0.0000
 20
0.0000
 30
0.0000
 40
0.3048
 41
0.3048
 70
0
  0
VERTEX
  8
20
 10
95.0000
 20
36.6000
 30
0.0000
 42
0.1722
  0
VERTEX
  8
20
 10
97.2000
 20
30.4000
 30
0.0000
  0
SEQEND
  8
0
  0
POLYLINE
  8
20
 66
1
 10
0.0000
 20
0.0000
 30
0.0000
 40
0.1524
 41
0.1524
 70
0
  0
VERTEX
  8
20
 10
95.0762
 20
36.6000
 30
0.0000
 42
1.0000
  0
VERTEX
  8
20
 10
94.9238
 20
36.6000
 30
0.0000
  0
SEQEND
  8
0
  0
POLYLINE
  8
20
 66
1
 10
0.0000
 20
0.0000
 30
0.0000
 40
0.1524
 41
0.1524
 70
0
  0
VERTEX
  8
20
 10
97.1408
 20
30.3520
 30
0.0000
 42
1.0000
  0
VERTEX
  8
20
 10
97.2592
 20
30.4480
 30
0.0000
  0
SEQEND
  8
0
  0
POLYLINE
  8
20
 66
1
 10
0.0000
 20
0.0000
 30
0.0000
 40
0.3048
 41
0.3048
 70
0
  0
VERTEX
  8
20
 10
99.6000
 20
23.4000
 30
0.0000
 42
0.1777
  0
VERTEX
  8
20
 10
97.2000
 20
30.4000
 30
0.0000
  0
SEQEND
  8
0
  0
POLYLINE
  8
20
 66
1
 10
0.0000
 20
0.0000
 30
0.0000
 40
0.1524
 41
0.1524
 70
0
  0
VERTEX
  8
20
 10
99.5238
 20
23.4016
 30
0.0000
 42
1.0000
  0
VERTEX
  8
20
 10
99.6762
 20
23.3984
 30
0.0000
  0
SEQEND
  8
0
  0
POLYLINE
  8
20
 66
1
 10
0.0000
 20
0.0000
 30
0.0000
 40
0.1524
 41
0.1524
 70
0
  0
VERTEX
  8
20
 10
97.2592
 20
30.4480
 30
0.0000
 42
1.0000
  0
VERTEX
  8
20
 10
97.1408
 20
30.3520
 30
0.0000
  0
SEQEND
  8
0
  0
POLYLINE
  8
20
 66
1
 10
0.0000
 20
0.0000
 30
0.0000
 40
0.3048
 41
0.3048
 70
0
  0
VERTEX
  8
20
 10
97.2000
 20
12.8000
 30
0.0000
 42
0.1722
  0
VERTEX
  8
20
 10
95.0000
 20
6.6000
 30
0.0000
  0
SEQEND
  8
0
  0
POLYLINE
  8
20
 66
1
 10
0.0000
 20
0.0000
 30
0.0000
 40
0.1524
 41
0.1524
 70
0
  0
VERTEX
  8
20
 10
97.2592
 20
12.7520
 30
0.0000
 42
1.0000
  0
VERTEX
  8
20
 10
97.1408
 20
12.8480
 30
0.0000
  0
SEQEND
  8
0
  0
POLYLINE
  8
20
 66
1
 10
0.0000
 20
0.0000
 30
0.0000
 40
0.1524
 41
0.1524
 70
0
  0
VERTEX
  8
20
 10
94.9238
 20
6.6000
 30
0.0000
 42
1.0000
  0
VERTEX
  8
20
 10
95.0762
 20
6.6000
 30
0.0000
  0
SEQEND
  8
0
  0
POLYLINE
  8
20
 66
1
 10
0.0000
 20
0.0000
 30
0.0000
 40
0.3048
 41
0.3048
 70
0
  0
VERTEX
  8
20
 10
97.2000
 20
12.8000
 30
0.0000
 42
0.1777
  0
VERTEX
  8
20
 10
99.6000
 20
19.8000
 30
0.0000
  0
SEQEND
  8
0
  0
POLYLINE
  8
20
 66
1
 10
0.0000
 20
0.0000
 30
0.0000
 40
0.1524
 41
0.1524
 70
0
  0
VERTEX
  8
20
 10
97.1408
 20
12.8480
 30
0.0000
 42
1.0000
  0
VERTEX
  8
20
 10
97.2592
 20
12.7520
 30
0.0000
  0
SEQEND
  8
0
  0
POLYLINE
  8
20
 66
1
 10
0.0000
 20
0.0000
 30
0.0000
 40
0.1524
 41
0.1524
 70
0
  0
VERTEX
  8
20
 10
99.6762
 20
19.8016
 30
0.0000
 42
1.0000
  0
VERTEX
  8
20
 10
99.5238
 20
19.7984
 30
0.0000
  0
SEQEND
  8
0
  0
POLYLINE
  8
20
 66
1
 10
0.0000
 20
0.0000
 30
0.0000
 40
0.3048
 41
0.3048
 70
0
  0
VERTEX
  8
20
 10
80.0000
 20
24.6000
 30
0.0000
 42
1.0000
  0
VERTEX
  8
20
 10
83.0000
 20
24.6000
 30
0.0000
  0
SEQEND
  8
0
  0
POLYLINE
  8
20
 66
1
 10
0.0000
 20
0.0000
 30
0.0000
 40
0.1524
 41
0.1524
 70
0
  0
VERTEX
  8
20
 10
80.0762
 20
24.6000
 30
0.0000
 42
1.0000
  0
VERTEX
  8
20
 10
79.9238
 20
24.6000
 30
0.0000
  0
SEQEND
  8
0
  0
POLYLINE
  8
20
 66
1
 10
0.0000
 20
0.0000
 30
0.0000
 40
0.1524
 41
0.1524
 70
0
  0
VERTEX
  8
20
 10
83.0762
 20
24.6000
 30
0.0000
 42
1.0000
  0
VERTEX
  8
20
 10
82.9238
 20
24.6000
 30
0.0000
  0
SEQEND
  8
0
  0
POLYLINE
  8
20
 66
1
 10
0.0000
 20
0.0000
 30
0.0000
 40
0.3048
 41
0.3048
 70
0
  0
VERTEX
  8
20
 10
83.0000
 20
18.6000
 30
0.0000
 42
1.0000
  0
VERTEX
  8
20
 10
80.0000
 20
18.6000
 30
0.0000
  0
SEQEND
  8
0
  0
POLYLINE
  8
20
 66
1
 10
0.0000
 20
0.0000
 30
0.0000
 40
0.1524
 41
0.1524
 70
0
  0
VERTEX
  8
20
 10
82.9238
 20
18.6000
 30
0.0000
 42
1.0000
  0
VERTEX
  8
20
 10
83.0762
 20
18.6000
 30
0.0000
  0
SEQEND
  8
0
  0
POLYLINE
  8
20
 66
1
 10
0.0000
 20
0.0000
 30
0.0000
 40
0.1524
 41
0.1524
 70
0
  0
VERTEX
  8
20
 10
79.9238
 20
18.6000
 30
0.0000
 42
1.0000
  0
VERTEX
  8
20
 10
80.0762
 20
18.6000
 30
0.0000
  0
SEQEND
  8
0
  0
POLYLINE
  8
20
 66
1
 10
0.0000
 20
0.0000
 30
0.0000
 40
0.3048
 41
0.3048
 70
0
  0
VERTEX
  8
20
 10
80.0000
 20
36.6000
 30
0.0000
 42
1.0000
  0
VERTEX
  8
20
 10
83.0000
 20
36.6000
 30
0.0000
  0
SEQEND
  8
0
  0
POLYLINE
  8
20
 66
1
 10
0.0000
 20
0.0000
 30
0.0000
 40
0.1524
 41
0.1524
 70
0
  0
VERTEX
  8
20
 10
80.0762
 20
36.6000
 30
0.0000
 42
1.0000
  0
VERTEX
  8
20
 10
79.9238
 20
36.6000
 30
0.0000
  0
SEQEND
  8
0
  0
POLYLINE
  8
20
 66
1
 10
0.0000
 20
0.0000
 30
0.0000
 40
0.1524
 41
0.1524
 70
0
  0
VERTEX
  8
20
 10
83.0762
 20
36.6000
 30
0.0000
 42
1.0000
  0
VERTEX
  8
20
 10
82.9238
 20
36.6000
 30
0.0000
  0
SEQEND
  8
0
  0
POLYLINE
  8
20
 66
1
 10
0.0000
 20
0.0000
 30
0.0000
 40
0.3048
 41
0.3048
 70
0
  0
VERTEX
  8
20
 10
83.0000
 20
30.6000
 30
0.0000
 42
1.0000
  0
VERTEX
  8
20
 10
80.0000
 20
30.6000
 30
0.0000
  0
SEQEND
  8
0
  0
POLYLINE
  8
20
 66
1
 10
0.0000
 20
0.0000
 30
0.0000
 40
0.1524
 41
0.1524
 70
0
  0
VERTEX
  8
20
 10
82.9238
 20
30.6000
 30
0.0000
 42
1.0000
  0
VERTEX
  8
20
 10
83.0762
 20
30.6000
 30
0.0000
  0
SEQEND
  8
0
  0
POLYLINE
  8
20
 66
1
 10
0.0000
 20
0.0000
 30
0.0000
 40
0.1524
 41
0.1524
 70
0
  0
VERTEX
  8
20
 10
79.9238
 20
30.6000
 30
0.0000
 42
1.0000
  0
VERTEX
  8
20
 10
80.0762
 20
30.6000
 30
0.0000
  0
SEQEND
  8
0
  0
POLYLINE
  8
20
 66
1
 10
0.0000
 20
0.0000
 30
0.0000
 40
0.3048
 41
0.3048
 70
0
  0
VERTEX
  8
20
 10
80.0000
 20
12.6000
 30
0.0000
 42
1.0000
  0
VERTEX
  8
20
 10
83.0000
 20
12.6000
 30
0.0000
  0
SEQEND
  8
0
  0
POLYLINE
  8
20
 66
1
 10
0.0000
 20
0.0000
 30
0.0000
 40
0.1524
 41
0.1524
 70
0
  0
VERTEX
  8
20
 10
80.0762
 20
12.6000
 30
0.0000
 42
1.0000
  0
VERTEX
  8
20
 10
79.9238
 20
12.6000
 30
0.0000
  0
SEQEND
  8
0
  0
POLYLINE
  8
20
 66
1
 10
0.0000
 20
0.0000
 30
0.0000
 40
0.1524
 41
0.1524
 70
0
  0
VERTEX
  8
20
 10
83.0762
 20
12.6000
 30
0.0000
 42
1.0000
  0
VERTEX
  8
20
 10
82.9238
 20
12.6000
 30
0.0000
  0
SEQEND
  8
0
  0
POLYLINE
  8
20
 66
1
 10
0.0000
 20
0.0000
 30
0.0000
 40
0.3048
 41
0.3048
 70
0
  0
VERTEX
  8
20
 10
83.0000
 20
6.6000
 30
0.0000
 42
1.0000
  0
VERTEX
  8
20
 10
80.0000
 20
6.6000
 30
0.0000
  0
SEQEND
  8
0
  0
POLYLINE
  8
20
 66
1
 10
0.0000
 20
0.0000
 30
0.0000
 40
0.1524
 41
0.1524
 70
0
  0
VERTEX
  8
20
 10
82.9238
 20
6.6000
 30
0.0000
 42
1.0000
  0
VERTEX
  8
20
 10
83.0762
 20
6.6000
 30
0.0000
  0
SEQEND
  8
0
  0
POLYLINE
  8
20
 66
1
 10
0.0000
 20
0.0000
 30
0.0000
 40
0.1524
 41
0.1524
 70
0
  0
VERTEX
  8
20
 10
79.9238
 20
6.6000
 30
0.0000
 42
1.0000
  0
VERTEX
  8
20
 10
80.0762
 20
6.6000
 30
0.0000
  0
SEQEND
  8
0
  0
POLYLINE
  8
20
 66
1
 10
0.0000
 20
0.0000
 30
0.0000
 40
0.3048
 41
0.3048
 70
0
  0
VERTEX
  8
20
 10
80.0000
 20
6.6000
 30
0.0000
  0
VERTEX
  8
20
 10
80.0000
 20
6.2000
 30
0.0000
  0
SEQEND
  8
0
  0
POLYLINE
  8
20
 66
1
 10
0.0000
 20
0.0000
 30
0.0000
 40
0.1524
 41
0.1524
 70
0
  0
VERTEX
  8
20
 10
79.9238
 20
6.2000
 30
0.0000
 42
1.0000
  0
VERTEX
  8
20
 10
80.0762
 20
6.2000
 30
0.0000
  0
SEQEND
  8
0
  0
POLYLINE
  8
20
 66
1
 10
0.0000
 20
0.0000
 30
0.0000
 40
0.1524
 41
0.1524
 70
0
  0
VERTEX
  8
20
 10
80.0762
 20
6.6000
 30
0.0000
 42
1.0000
  0
VERTEX
  8
20
 10
79.9238
 20
6.6000
 30
0.0000
  0
SEQEND
  8
0
  0
POLYLINE
  8
20
 66
1
 10
0.0000
 20
0.0000
 30
0.0000
 40
0.3048
 41
0.3048
 70
0
  0
VERTEX
  8
20
 10
80.0000
 20
18.6000
 30
0.0000
  0
VERTEX
  8
20
 10
80.0000
 20
12.6000
 30
0.0000
  0
SEQEND
  8
0
  0
POLYLINE
  8
20
 66
1
 10
0.0000
 20
0.0000
 30
0.0000
 40
0.1524
 41
0.1524
 70
0
  0
VERTEX
  8
20
 10
79.9238
 20
12.6000
 30
0.0000
 42
1.0000
  0
VERTEX
  8
20
 10
80.0762
 20
12.6000
 30
0.0000
  0
SEQEND
  8
0
  0
POLYLINE
  8
20
 66
1
 10
0.0000
 20
0.0000
 30
0.0000
 40
0.1524
 41
0.1524
 70
0
  0
VERTEX
  8
20
 10
80.0762
 20
18.6000
 30
0.0000
 42
1.0000
  0
VERTEX
  8
20
 10
79.9238
 20
18.6000
 30
0.0000
  0
SEQEND
  8
0
  0
POLYLINE
  8
20
 66
1
 10
0.0000
 20
0.0000
 30
0.0000
 40
0.3048
 41
0.3048
 70
0
  0
VERTEX
  8
20
 10
83.0000
 20
12.6000
 30
0.0000
  0
VERTEX
  8
20
 10
83.0000
 20
18.6000
 30
0.0000
  0
SEQEND
  8
0
  0
POLYLINE
  8
20
 66
1
 10
0.0000
 20
0.0000
 30
0.0000
 40
0.1524
 41
0.1524
 70
0
  0
VERTEX
  8
20
 10
83.0762
 20
18.6000
 30
0.0000
 42
1.0000
  0
VERTEX
  8
20
 10
82.9238
 20
18.6000
 30
0.0000
  0
SEQEND
  8
0
  0
POLYLINE
  8
20
 66
1
 10
0.0000
 20
0.0000
 30
0.0000
 40
0.1524
 41
0.1524
 70
0
  0
VERTEX
  8
20
 10
82.9238
 20
12.6000
 30
0.0000
 42
1.0000
  0
VERTEX
  8
20
 10
83.0762
 20
12.6000
 30
0.0000
  0
SEQEND
  8
0
  0
POLYLINE
  8
20
 66
1
 10
0.0000
 20
0.0000
 30
0.0000
 40
0.3048
 41
0.3048
 70
0
  0
VERTEX
  8
20
 10
80.0000
 20
24.6000
 30
0.0000
  0
VERTEX
  8
20
 10
80.0000
 20
30.6000
 30
0.0000
  0
SEQEND
  8
0
  0
POLYLINE
  8
20
 66
1
 10
0.0000
 20
0.0000
 30
0.0000
 40
0.1524
 41
0.1524
 70
0
  0
VERTEX
  8
20
 10
80.0762
 20
30.6000
 30
0.0000
 42
1.0000
  0
VERTEX
  8
20
 10
79.9238
 20
30.6000
 30
0.0000
  0
SEQEND
  8
0
  0
POLYLINE
  8
20
 66
1
 10
0.0000
 20
0.0000
 30
0.0000
 40
0.1524
 41
0.1524
 70
0
  0
VERTEX
  8
20
 10
79.9238
 20
24.6000
 30
0.0000
 42
1.0000
  0
VERTEX
  8
20
 10
80.0762
 20
24.6000
 30
0.0000
  0
SEQEND
  8
0
  0
POLYLINE
  8
20
 66
1
 10
0.0000
 20
0.0000
 30
0.0000
 40
0.3048
 41
0.3048
 70
0
  0
VERTEX
  8
20
 10
83.0000
 20
30.6000
 30
0.0000
  0
VERTEX
  8
20
 10
83.0000
 20
24.6000
 30
0.0000
  0
SEQEND
  8
0
  0
POLYLINE
  8
20
 66
1
 10
0.0000
 20
0.0000
 30
0.0000
 40
0.1524
 41
0.1524
 70
0
  0
VERTEX
  8
20
 10
82.9238
 20
24.6000
 30
0.0000
 42
1.0000
  0
VERTEX
  8
20
 10
83.0762
 20
24.6000
 30
0.0000
  0
SEQEND
  8
0
  0
POLYLINE
  8
20
 66
1
 10
0.0000
 20
0.0000
 30
0.0000
 40
0.1524
 41
0.1524
 70
0
  0
VERTEX
  8
20
 10
83.0762
 20
30.6000
 30
0.0000
 42
1.0000
  0
VERTEX
  8
20
 10
82.9238
 20
30.6000
 30
0.0000
  0
SEQEND
  8
0
  0
POLYLINE
  8
20
 66
1
 10
0.0000
 20
0.0000
 30
0.0000
 40
0.3048
 41
0.3048
 70
0
  0
VERTEX
  8
20
 10
80.0000
 20
36.6000
 30
0.0000
  0
VERTEX
  8
20
 10
80.0000
 20
37.0000
 30
0.0000
  0
SEQEND
  8
0
  0
POLYLINE
  8
20
 66
1
 10
0.0000
 20
0.0000
 30
0.0000
 40
0.1524
 41
0.1524
 70
0
  0
VERTEX
  8
20
 10
80.0762
 20
37.0000
 30
0.0000
 42
1.0000
  0
VERTEX
  8
20
 10
79.9238
 20
37.0000
 30
0.0000
  0
SEQEND
  8
0
  0
POLYLINE
  8
20
 66
1
 10
0.0000
 20
0.0000
 30
0.0000
 40
0.1524
 41
0.1524
 70
0
  0
VERTEX
  8
20
 10
79.9238
 20
36.6000
 30
0.0000
 42
1.0000
  0
VERTEX
  8
20
 10
80.0762
 20
36.6000
 30
0.0000
  0
SEQEND
  8
0
  0
CIRCLE
  8
20
 10
80.0000
 20
23.2000
 30
0.0000
 40
0.2000
  0
CIRCLE
  8
20
 10
80.0000
 20
22.4000
 30
0.0000
 40
0.2000
  0
CIRCLE
  8
20
 10
80.0000
 20
21.6000
 30
0.0000
 40
0.2000
  0
CIRCLE
  8
20
 10
80.0000
 20
20.8000
 30
0.0000
 40
0.2000
  0
CIRCLE
  8
20
 10
80.0000
 20
20.0000
 30
0.0000
 40
0.2000
  0
CIRCLE
  8
20
 10
83.0000
 20
23.2000
 30
0.0000
 40
0.2000
  0
CIRCLE
  8
20
 10
83.0000
 20
22.4000
 30
0.0000
 40
0.2000
  0
CIRCLE
  8
20
 10
83.0000
 20
21.6000
 30
0.0000
 40
0.2000
  0
CIRCLE
  8
20
 10
83.0000
 20
20.8000
 30
0.0000
 40
0.2000
  0
CIRCLE
  8
20
 10
83.0000
 20
20.0000
 30
0.0000
 40
0.2000
  0
CIRCLE
  8
20
 10
80.0000
 20
35.2000
 30
0.0000
 40
0.2000
  0
CIRCLE
  8
20
 10
80.0000
 20
34.4000
 30
0.0000
 40
0.2000
  0
CIRCLE
  8
20
 10
80.0000
 20
33.6000
 30
0.0000
 40
0.2000
  0
CIRCLE
  8
20
 10
80.0000
 20
32.8000
 30
0.0000
 40
0.2000
  0
CIRCLE
  8
20
 10
80.0000
 20
32.0000
 30
0.0000
 40
0.2000
  0
CIRCLE
  8
20
 10
83.0000
 20
35.2000
 30
0.0000
 40
0.2000
  0
CIRCLE
  8
20
 10
83.0000
 20
34.4000
 30
0.0000
 40
0.2000
  0
CIRCLE
  8
20
 10
83.0000
 20
33.6000
 30
0.0000
 40
0.2000
  0
CIRCLE
  8
20
 10
83.0000
 20
32.8000
 30
0.0000
 40
0.2000
  0
CIRCLE
  8
20
 10
83.0000
 20
32.0000
 30
0.0000
 40
0.2000
  0
CIRCLE
  8
20
 10
80.0000
 20
11.2000
 30
0.0000
 40
0.2000
  0
CIRCLE
  8
20
 10
80.0000
 20
10.4000
 30
0.0000
 40
0.2000
  0
CIRCLE
  8
20
 10
80.0000
 20
9.6000
 30
0.0000
 40
0.2000
  0
CIRCLE
  8
20
 10
80.0000
 20
8.8000
 30
0.0000
 40
0.2000
  0
CIRCLE
  8
20
 10
80.0000
 20
8.0000
 30
0.0000
 40
0.2000
  0
CIRCLE
  8
20
 10
83.0000
 20
11.2000
 30
0.0000
 40
0.2000
  0
CIRCLE
  8
20
 10
83.0000
 20
10.4000
 30
0.0000
 40
0.2000
  0
CIRCLE
  8
20
 10
83.0000
 20
9.6000
 30
0.0000
 40
0.2000
  0
CIRCLE
  8
20
 10
83.0000
 20
8.8000
 30
0.0000
 40
0.2000
  0
CIRCLE
  8
20
 10
83.0000
 20
8.0000
 30
0.0000
 40
0.2000
  0
INSERT
  8
17
  2
LONGP100
 10
1.7600
 20
20.3300
 30
0.0000
 41
1.5240
 42
1.5240
 43
1.0000
 50
180.0000
  0
INSERT
  8
17
  2
LONGP100
 10
1.7600
 20
20.3300
 30
0.0000
 41
1.5240
 42
1.5240
 43
1.0000
 50
180.0000
  0
INSERT
  8
17
  2
LONGP100
 10
1.7600
 20
22.8700
 30
0.0000
 41
1.5240
 42
1.5240
 43
1.0000
 50
180.0000
  0
INSERT
  8
17
  2
LONGP100
 10
1.7600
 20
22.8700
 30
0.0000
 41
1.5240
 42
1.5240
 43
1.0000
 50
180.0000
  0
INSERT
  8
17
  2
LONGP100
 10
24.5600
 20
22.0100
 30
0.0000
 41
1.6764
 42
1.6764
 43
1.0000
 50
0.0000
  0
INSERT
  8
17
  2
LONGP100
 10
24.5600
 20
22.0100
 30
0.0000
 41
1.6764
 42
1.6764
 43
1.0000
 50
0.0000
  0
INSERT
  8
17
  2
LONGP100
 10
14.4000
 20
22.0100
 30
0.0000
 41
1.6764
 42
1.6764
 43
1.0000
 50
0.0000
  0
INSERT
  8
17
  2
LONGP100
 10
14.4000
 20
22.0100
 30
0.0000
 41
1.6764
 42
1.6764
 43
1.0000
 50
0.0000
  0
INSERT
  8
17
  2
ROUNDP
 10
33.6500
 20
2.3800
 30
0.0000
 41
1.7780
 42
1.7780
 43
1.0000
 50
0.0000
  0
INSERT
  8
17
  2
ROUNDP
 10
33.6500
 20
2.3800
 30
0.0000
 41
1.7780
 42
1.7780
 43
1.0000
 50
0.0000
  0
INSERT
  8
17
  2
ROUNDP
 10
36.1900
 20
2.3800
 30
0.0000
 41
1.7780
 42
1.7780
 43
1.0000
 50
0.0000
  0
INSERT
  8
17
  2
ROUNDP
 10
36.1900
 20
2.3800
 30
0.0000
 41
1.7780
 42
1.7780
 43
1.0000
 50
0.0000
  0
INSERT
  8
17
  2
ROUNDP
 10
38.7300
 20
2.3800
 30
0.0000
 41
1.7780
 42
1.7780
 43
1.0000
 50
0.0000
  0
INSERT
  8
17
  2
ROUNDP
 10
38.7300
 20
2.3800
 30
0.0000
 41
1.7780
 42
1.7780
 43
1.0000
 50
0.0000
  0
INSERT
  8
17
  2
ROUNDP
 10
41.2700
 20
2.3800
 30
0.0000
 41
1.7780
 42
1.7780
 43
1.0000
 50
0.0000
  0
INSERT
  8
17
  2
ROUNDP
 10
41.2700
 20
2.3800
 30
0.0000
 41
1.7780
 42
1.7780
 43
1.0000
 50
0.0000
  0
INSERT
  8
17
  2
ROUNDP
 10
43.8100
 20
2.3800
 30
0.0000
 41
1.7780
 42
1.7780
 43
1.0000
 50
0.0000
  0
INSERT
  8
17
  2
ROUNDP
 10
43.8100
 20
2.3800
 30
0.0000
 41
1.7780
 42
1.7780
 43
1.0000
 50
0.0000
  0
INSERT
  8
17
  2
ROUNDP
 10
46.3500
 20
2.3800
 30
0.0000
 41
1.7780
 42
1.7780
 43
1.0000
 50
0.0000
  0
INSERT
  8
17
  2
ROUNDP
 10
46.3500
 20
2.3800
 30
0.0000
 41
1.7780
 42
1.7780
 43
1.0000
 50
0.0000
  0
INSERT
  8
17
  2
ROUNDP
 10
46.3500
 20
17.6200
 30
0.0000
 41
1.7780
 42
1.7780
 43
1.0000
 50
0.0000
  0
INSERT
  8
17
  2
ROUNDP
 10
46.3500
 20
17.6200
 30
0.0000
 41
1.7780
 42
1.7780
 43
1.0000
 50
0.0000
  0
INSERT
  8
17
  2
ROUNDP
 10
43.8100
 20
17.6200
 30
0.0000
 41
1.7780
 42
1.7780
 43
1.0000
 50
0.0000
  0
INSERT
  8
17
  2
ROUNDP
 10
43.8100
 20
17.6200
 30
0.0000
 41
1.7780
 42
1.7780
 43
1.0000
 50
0.0000
  0
INSERT
  8
17
  2
ROUNDP
 10
41.2700
 20
17.6200
 30
0.0000
 41
1.7780
 42
1.7780
 43
1.0000
 50
0.0000
  0
INSERT
  8
17
  2
ROUNDP
 10
41.2700
 20
17.6200
 30
0.0000
 41
1.7780
 42
1.7780
 43
1.0000
 50
0.0000
  0
INSERT
  8
17
  2
ROUNDP
 10
38.7300
 20
17.6200
 30
0.0000
 41
1.7780
 42
1.7780
 43
1.0000
 50
0.0000
  0
INSERT
  8
17
  2
ROUNDP
 10
38.7300
 20
17.6200
 30
0.0000
 41
1.7780
 42
1.7780
 43
1.0000
 50
0.0000
  0
INSERT
  8
17
  2
ROUNDP
 10
36.1900
 20
17.6200
 30
0.0000
 41
1.7780
 42
1.7780
 43
1.0000
 50
0.0000
  0
INSERT
  8
17
  2
ROUNDP
 10
36.1900
 20
17.6200
 30
0.0000
 41
1.7780
 42
1.7780
 43
1.0000
 50
0.0000
  0
INSERT
  8
17
  2
ROUNDP
 10
33.6500
 20
17.6200
 30
0.0000
 41
1.7780
 42
1.7780
 43
1.0000
 50
0.0000
  0
INSERT
  8
17
  2
ROUNDP
 10
33.6500
 20
17.6200
 30
0.0000
 41
1.7780
 42
1.7780
 43
1.0000
 50
0.0000
  0
INSERT
  8
17
  2
LONGP100
 10
96.0000
 20
17.7900
 30
0.0000
 41
1.5240
 42
1.5240
 43
1.0000
 50
180.0000
  0
INSERT
  8
17
  2
LONGP100
 10
96.0000
 20
17.7900
 30
0.0000
 41
1.5240
 42
1.5240
 43
1.0000
 50
180.0000
  0
INSERT
  8
17
  2
LONGP100
 10
96.0000
 20
20.3300
 30
0.0000
 41
1.5240
 42
1.5240
 43
1.0000
 50
180.0000
  0
INSERT
  8
17
  2
LONGP100
 10
96.0000
 20
20.3300
 30
0.0000
 41
1.5240
 42
1.5240
 43
1.0000
 50
180.0000
  0
INSERT
  8
17
  2
LONGP100
 10
96.0000
 20
22.8700
 30
0.0000
 41
1.5240
 42
1.5240
 43
1.0000
 50
180.0000
  0
INSERT
  8
17
  2
LONGP100
 10
96.0000
 20
22.8700
 30
0.0000
 41
1.5240
 42
1.5240
 43
1.0000
 50
180.0000
  0
INSERT
  8
17
  2
LONGP100
 10
96.0000
 20
25.4100
 30
0.0000
 41
1.5240
 42
1.5240
 43
1.0000
 50
180.0000
  0
INSERT
  8
17
  2
LONGP100
 10
96.0000
 20
25.4100
 30
0.0000
 41
1.5240
 42
1.5240
 43
1.0000
 50
180.0000
  0
INSERT
  8
17
  2
LONGP100
 10
47.1700
 20
41.5400
 30
0.0000
 41
1.5240
 42
1.5240
 43
1.0000
 50
90.0000
  0
INSERT
  8
17
  2
LONGP100
 10
47.1700
 20
41.5400
 30
0.0000
 41
1.5240
 42
1.5240
 43
1.0000
 50
90.0000
  0
INSERT
  8
17
  2
LONGP100
 10
49.7100
 20
41.5400
 30
0.0000
 41
1.5240
 42
1.5240
 43
1.0000
 50
90.0000
  0
INSERT
  8
17
  2
LONGP100
 10
49.7100
 20
41.5400
 30
0.0000
 41
1.5240
 42
1.5240
 43
1.0000
 50
90.0000
  0
INSERT
  8
17
  2
LONGP100
 10
52.2500
 20
41.5400
 30
0.0000
 41
1.5240
 42
1.5240
 43
1.0000
 50
90.0000
  0
INSERT
  8
17
  2
LONGP100
 10
52.2500
 20
41.5400
 30
0.0000
 41
1.5240
 42
1.5240
 43
1.0000
 50
90.0000
  0
INSERT
  8
17
  2
LONGP100
 10
54.7900
 20
41.5400
 30
0.0000
 41
1.5240
 42
1.5240
 43
1.0000
 50
90.0000
  0
INSERT
  8
17
  2
LONGP100
 10
54.7900
 20
41.5400
 30
0.0000
 41
1.5240
 42
1.5240
 43
1.0000
 50
90.0000
  0
INSERT
  8
17
  2
LONGP100
 10
26.5700
 20
1.6600
 30
0.0000
 41
1.5240
 42
1.5240
 43
1.0000
 50
270.0000
  0
INSERT
  8
17
  2
LONGP100
 10
26.5700
 20
1.6600
 30
0.0000
 41
1.5240
 42
1.5240
 43
1.0000
 50
270.0000
  0
INSERT
  8
17
  2
LONGP100
 10
24.0300
 20
1.6600
 30
0.0000
 41
1.5240
 42
1.5240
 43
1.0000
 50
270.0000
  0
INSERT
  8
17
  2
LONGP100
 10
24.0300
 20
1.6600
 30
0.0000
 41
1.5240
 42
1.5240
 43
1.0000
 50
270.0000
  0
INSERT
  8
17
  2
LONGP100
 10
21.4900
 20
1.6600
 30
0.0000
 41
1.5240
 42
1.5240
 43
1.0000
 50
270.0000
  0
INSERT
  8
17
  2
LONGP100
 10
21.4900
 20
1.6600
 30
0.0000
 41
1.5240
 42
1.5240
 43
1.0000
 50
270.0000
  0
INSERT
  8
17
  2
LONGP100
 10
18.9500
 20
1.6600
 30
0.0000
 41
1.5240
 42
1.5240
 43
1.0000
 50
270.0000
  0
INSERT
  8
17
  2
LONGP100
 10
18.9500
 20
1.6600
 30
0.0000
 41
1.5240
 42
1.5240
 43
1.0000
 50
270.0000
  0
INSERT
  8
17
  2
LONGP100
 10
16.4100
 20
1.6600
 30
0.0000
 41
1.5240
 42
1.5240
 43
1.0000
 50
270.0000
  0
INSERT
  8
17
  2
LONGP100
 10
16.4100
 20
1.6600
 30
0.0000
 41
1.5240
 42
1.5240
 43
1.0000
 50
270.0000
  0
INSERT
  8
17
  2
ROUNDP
 10
63.9300
 20
30.3300
 30
0.0000
 41
2.0000
 42
2.0000
 43
1.0000
 50
90.0000
  0
INSERT
  8
17
  2
ROUNDP
 10
63.9300
 20
30.3300
 30
0.0000
 41
2.0000
 42
2.0000
 43
1.0000
 50
90.0000
  0
INSERT
  8
17
  2
ROUNDP
 10
61.3900
 20
30.3300
 30
0.0000
 41
2.0000
 42
2.0000
 43
1.0000
 50
90.0000
  0
INSERT
  8
17
  2
ROUNDP
 10
61.3900
 20
30.3300
 30
0.0000
 41
2.0000
 42
2.0000
 43
1.0000
 50
90.0000
  0
INSERT
  8
17
  2
ROUNDP
 10
63.9300
 20
27.7900
 30
0.0000
 41
2.0000
 42
2.0000
 43
1.0000
 50
90.0000
  0
INSERT
  8
17
  2
ROUNDP
 10
63.9300
 20
27.7900
 30
0.0000
 41
2.0000
 42
2.0000
 43
1.0000
 50
90.0000
  0
INSERT
  8
17
  2
ROUNDP
 10
61.3900
 20
35.4100
 30
0.0000
 41
2.0000
 42
2.0000
 43
1.0000
 50
90.0000
  0
INSERT
  8
17
  2
ROUNDP
 10
61.3900
 20
35.4100
 30
0.0000
 41
2.0000
 42
2.0000
 43
1.0000
 50
90.0000
  0
INSERT
  8
17
  2
ROUNDP
 10
63.9300
 20
35.4100
 30
0.0000
 41
2.0000
 42
2.0000
 43
1.0000
 50
90.0000
  0
INSERT
  8
17
  2
ROUNDP
 10
63.9300
 20
35.4100
 30
0.0000
 41
2.0000
 42
2.0000
 43
1.0000
 50
90.0000
  0
INSERT
  8
17
  2
ROUNDP
 10
61.3900
 20
32.8700
 30
0.0000
 41
2.0000
 42
2.0000
 43
1.0000
 50
90.0000
  0
INSERT
  8
17
  2
ROUNDP
 10
61.3900
 20
32.8700
 30
0.0000
 41
2.0000
 42
2.0000
 43
1.0000
 50
90.0000
  0
INSERT
  8
17
  2
ROUNDP
 10
63.9300
 20
32.8700
 30
0.0000
 41
2.0000
 42
2.0000
 43
1.0000
 50
90.0000
  0
INSERT
  8
17
  2
ROUNDP
 10
63.9300
 20
32.8700
 30
0.0000
 41
2.0000
 42
2.0000
 43
1.0000
 50
90.0000
  0
INSERT
  8
17
  2
ROUNDP
 10
61.3900
 20
27.7900
 30
0.0000
 41
2.0000
 42
2.0000
 43
1.0000
 50
90.0000
  0
INSERT
  8
17
  2
ROUNDP
 10
61.3900
 20
27.7900
 30
0.0000
 41
2.0000
 42
2.0000
 43
1.0000
 50
90.0000
  0
INSERT
  8
17
  2
ROUNDP
 10
23.6000
 20
35.8000
 30
0.0000
 41
1.4080
 42
1.4080
 43
1.0000
 50
270.0000
  0
INSERT
  8
17
  2
ROUNDP
 10
23.6000
 20
35.8000
 30
0.0000
 41
1.4080
 42
1.4080
 43
1.0000
 50
270.0000
  0
INSERT
  8
17
  2
ROUNDP
 10
25.6000
 20
35.8000
 30
0.0000
 41
1.4080
 42
1.4080
 43
1.0000
 50
270.0000
  0
INSERT
  8
17
  2
ROUNDP
 10
25.6000
 20
35.8000
 30
0.0000
 41
1.4080
 42
1.4080
 43
1.0000
 50
270.0000
  0
INSERT
  8
17
  2
ROUNDP
 10
23.6000
 20
33.8000
 30
0.0000
 41
1.4080
 42
1.4080
 43
1.0000
 50
270.0000
  0
INSERT
  8
17
  2
ROUNDP
 10
23.6000
 20
33.8000
 30
0.0000
 41
1.4080
 42
1.4080
 43
1.0000
 50
270.0000
  0
INSERT
  8
17
  2
ROUNDP
 10
25.6000
 20
33.8000
 30
0.0000
 41
1.4080
 42
1.4080
 43
1.0000
 50
270.0000
  0
INSERT
  8
17
  2
ROUNDP
 10
25.6000
 20
33.8000
 30
0.0000
 41
1.4080
 42
1.4080
 43
1.0000
 50
270.0000
  0
INSERT
  8
17
  2
ROUNDP
 10
23.6000
 20
31.8000
 30
0.0000
 41
1.4080
 42
1.4080
 43
1.0000
 50
270.0000
  0
INSERT
  8
17
  2
ROUNDP
 10
23.6000
 20
31.8000
 30
0.0000
 41
1.4080
 42
1.4080
 43
1.0000
 50
270.0000
  0
INSERT
  8
17
  2
ROUNDP
 10
25.6000
 20
31.8000
 30
0.0000
 41
1.4080
 42
1.4080
 43
1.0000
 50
270.0000
  0
INSERT
  8
17
  2
ROUNDP
 10
25.6000
 20
31.8000
 30
0.0000
 41
1.4080
 42
1.4080
 43
1.0000
 50
270.0000
  0
INSERT
  8
17
  2
ROUNDP
 10
23.6000
 20
29.8000
 30
0.0000
 41
1.4080
 42
1.4080
 43
1.0000
 50
270.0000
  0
INSERT
  8
17
  2
ROUNDP
 10
23.6000
 20
29.8000
 30
0.0000
 41
1.4080
 42
1.4080
 43
1.0000
 50
270.0000
  0
INSERT
  8
17
  2
ROUNDP
 10
25.6000
 20
29.8000
 30
0.0000
 41
1.4080
 42
1.4080
 43
1.0000
 50
270.0000
  0
INSERT
  8
17
  2
ROUNDP
 10
25.6000
 20
29.8000
 30
0.0000
 41
1.4080
 42
1.4080
 43
1.0000
 50
270.0000
  0
INSERT
  8
18
  2
ROUNDV
 10
19.4000
 20
40.4000
 30
0.0000
 41
1.2700
 42
1.2700
 43
1.0000
 50
0.0000
  0
INSERT
  8
18
  2
ROUNDV
 10
58.4000
 20
27.8000
 30
0.0000
 41
1.2700
 42
1.2700
 43
1.0000
 50
0.0000
  0
INSERT
  8
18
  2
ROUNDV
 10
58.0000
 20
36.2000
 30
0.0000
 41
1.2700
 42
1.2700
 43
1.0000
 50
0.0000
  0
INSERT
  8
18
  2
ROUNDV
 10
20.9790
 20
27.8600
 30
0.0000
 41
1.2700
 42
1.2700
 43
1.0000
 50
0.0000
  0
INSERT
  8
18
  2
ROUNDV
 10
51.0000
 20
18.0000
 30
0.0000
 41
1.2700
 42
1.2700
 43
1.0000
 50
0.0000
  0
INSERT
  8
18
  2
ROUNDV
 10
66.4000
 20
16.4000
 30
0.0000
 41
1.2700
 42
1.2700
 43
1.0000
 50
0.0000
  0
INSERT
  8
18
  2
ROUNDV
 10
24.6000
 20
7.6000
 30
0.0000
 41
1.2700
 42
1.2700
 43
1.0000
 50
0.0000
  0
INSERT
  8
18
  2
ROUNDV
 10
65.2000
 20
25.8000
 30
0.0000
 41
1.2700
 42
1.2700
 43
1.0000
 50
0.0000
  0
INSERT
  8
18
  2
ROUNDV
 10
39.2000
 20
41.2000
 30
0.0000
 41
1.2700
 42
1.2700
 43
1.0000
 50
0.0000
  0
INSERT
  8
18
  2
ROUNDV
 10
57.8000
 20
15.6000
 30
0.0000
 41
1.2700
 42
1.2700
 43
1.0000
 50
0.0000
  0
INSERT
  8
18
  2
ROUNDV
 10
30.8000
 20
21.6000
 30
0.0000
 41
1.2700
 42
1.2700
 43
1.0000
 50
0.0000
  0
INSERT
  8
18
  2
ROUNDV
 10
61.8000
 20
23.2000
 30
0.0000
 41
1.2700
 42
1.2700
 43
1.0000
 50
0.0000
  0
INSERT
  8
18
  2
ROUNDV
 10
42.2000
 20
26.6000
 30
0.0000
 41
1.2700
 42
1.2700
 43
1.0000
 50
0.0000
  0
INSERT
  8
18
  2
ROUNDV
 10
59.8000
 20
6.8000
 30
0.0000
 41
1.2700
 42
1.2700
 43
1.0000
 50
0.0000
  0
INSERT
  8
18
  2
ROUNDV
 10
45.0000
 20
31.0000
 30
0.0000
 41
1.2700
 42
1.2700
 43
1.0000
 50
0.0000
  0
INSERT
  8
18
  2
ROUNDV
 10
49.8000
 20
24.0000
 30
0.0000
 41
1.2700
 42
1.2700
 43
1.0000
 50
0.0000
  0
INSERT
  8
18
  2
ROUNDV
 10
49.8000
 20
22.2000
 30
0.0000
 41
1.2700
 42
1.2700
 43
1.0000
 50
0.0000
  0
INSERT
  8
18
  2
ROUNDV
 10
88.0000
 20
25.8000
 30
0.0000
 41
1.2700
 42
1.2700
 43
1.0000
 50
0.0000
  0
INSERT
  8
18
  2
ROUNDV
 10
85.8000
 20
16.2000
 30
0.0000
 41
1.2700
 42
1.2700
 43
1.0000
 50
0.0000
  0
INSERT
  8
18
  2
ROUNDV
 10
92.8000
 20
20.2000
 30
0.0000
 41
1.2700
 42
1.2700
 43
1.0000
 50
0.0000
  0
INSERT
  8
18
  2
ROUNDV
 10
85.8000
 20
18.0000
 30
0.0000
 41
1.2700
 42
1.2700
 43
1.0000
 50
0.0000
  0
INSERT
  8
18
  2
ROUNDV
 10
92.8000
 20
22.8000
 30
0.0000
 41
1.2700
 42
1.2700
 43
1.0000
 50
0.0000
  0
INSERT
  8
18
  2
ROUNDV
 10
85.8000
 20
25.2000
 30
0.0000
 41
1.2700
 42
1.2700
 43
1.0000
 50
0.0000
  0
INSERT
  8
18
  2
ROUNDV
 10
68.4000
 20
20.2000
 30
0.0000
 41
1.2700
 42
1.2700
 43
1.0000
 50
0.0000
  0
INSERT
  8
18
  2
ROUNDV
 10
72.2000
 20
20.2000
 30
0.0000
 41
1.2700
 42
1.2700
 43
1.0000
 50
0.0000
  0
INSERT
  8
18
  2
ROUNDV
 10
76.0000
 20
20.2000
 30
0.0000
 41
1.2700
 42
1.2700
 43
1.0000
 50
0.0000
  0
INSERT
  8
18
  2
ROUNDV
 10
72.2000
 20
15.0000
 30
0.0000
 41
1.2700
 42
1.2700
 43
1.0000
 50
0.0000
  0
INSERT
  8
18
  2
ROUNDV
 10
39.6000
 20
14.0000
 30
0.0000
 41
1.2700
 42
1.2700
 43
1.0000
 50
0.0000
  0
INSERT
  8
18
  2
ROUNDV
 10
46.8000
 20
10.4000
 30
0.0000
 41
1.2700
 42
1.2700
 43
1.0000
 50
0.0000
  0
INSERT
  8
18
  2
ROUNDV
 10
52.0000
 20
8.6000
 30
0.0000
 41
1.2700
 42
1.2700
 43
1.0000
 50
0.0000
  0
INSERT
  8
18
  2
ROUNDV
 10
40.8000
 20
10.4000
 30
0.0000
 41
1.2700
 42
1.2700
 43
1.0000
 50
0.0000
  0
INSERT
  8
18
  2
ROUNDV
 10
36.4000
 20
8.2000
 30
0.0000
 41
1.2700
 42
1.2700
 43
1.0000
 50
0.0000
  0
INSERT
  8
18
  2
ROUNDV
 10
45.2000
 20
12.8000
 30
0.0000
 41
1.2700
 42
1.2700
 43
1.0000
 50
0.0000
  0
INSERT
  8
18
  2
ROUNDV
 10
61.4000
 20
5.2000
 30
0.0000
 41
1.2700
 42
1.2700
 43
1.0000
 50
0.0000
  0
INSERT
  8
18
  2
ROUNDV
 10
41.6000
 20
5.2000
 30
0.0000
 41
1.2700
 42
1.2700
 43
1.0000
 50
0.0000
  0
INSERT
  8
18
  2
ROUNDV
 10
6.2000
 20
6.2000
 30
0.0000
 41
12.0000
 42
12.0000
 43
1.0000
 50
0.0000
  0
INSERT
  8
18
  2
ROUNDV
 10
73.8000
 20
6.2000
 30
0.0000
 41
12.0000
 42
12.0000
 43
1.0000
 50
0.0000
  0
INSERT
  8
18
  2
ROUNDV
 10
6.2000
 20
37.0000
 30
0.0000
 41
12.0000
 42
12.0000
 43
1.0000
 50
0.0000
  0
INSERT
  8
18
  2
ROUNDV
 10
73.8000
 20
37.0000
 30
0.0000
 41
12.0000
 42
12.0000
 43
1.0000
 50
0.0000
  0
INSERT
  8
18
  2
ROUNDV
 10
89.0000
 20
6.6000
 30
0.0000
 41
12.0000
 42
12.0000
 43
1.0000
 50
0.0000
  0
INSERT
  8
18
  2
ROUNDV
 10
89.0000
 20
36.6000
 30
0.0000
 41
12.0000
 42
12.0000
 43
1.0000
 50
0.0000
  0
INSERT
  8
18
  2
ROUNDV
 10
49.0000
 20
34.6000
 30
0.0000
 41
1.2700
 42
1.2700
 43
1.0000
 50
0.0000
  0
INSERT
  8
18
  2
ROUNDV
 10
54.4000
 20
25.8000
 30
0.0000
 41
1.2700
 42
1.2700
 43
1.0000
 50
0.0000
  0
INSERT
  8
18
  2
ROUNDV
 10
60.4000
 20
38.0000
 30
0.0000
 41
1.2700
 42
1.2700
 43
1.0000
 50
0.0000
  0
INSERT
  8
18
  2
ROUNDV
 10
32.0000
 20
41.2000
 30
0.0000
 41
1.2700
 42
1.2700
 43
1.0000
 50
0.0000
  0
INSERT
  8
18
  2
ROUNDV
 10
61.8000
 20
39.2000
 30
0.0000
 41
1.2700
 42
1.2700
 43
1.0000
 50
0.0000
  0
INSERT
  8
18
  2
ROUNDV
 10
33.8000
 20
41.2000
 30
0.0000
 41
1.2700
 42
1.2700
 43
1.0000
 50
0.0000
  0
INSERT
  8
18
  2
ROUNDV
 10
71.2000
 20
29.0000
 30
0.0000
 41
1.2700
 42
1.2700
 43
1.0000
 50
0.0000
  0
INSERT
  8
18
  2
ROUNDV
 10
35.6000
 20
41.2000
 30
0.0000
 41
1.2700
 42
1.2700
 43
1.0000
 50
0.0000
  0
INSERT
  8
18
  2
ROUNDV
 10
74.2000
 20
21.2000
 30
0.0000
 41
1.2700
 42
1.2700
 43
1.0000
 50
0.0000
  0
INSERT
  8
18
  2
ROUNDV
 10
37.4000
 20
41.2000
 30
0.0000
 41
1.2700
 42
1.2700
 43
1.0000
 50
0.0000
  0
INSERT
  8
18
  2
ROUNDV
 10
56.6000
 20
27.8000
 30
0.0000
 41
1.2700
 42
1.2700
 43
1.0000
 50
0.0000
  0
INSERT
  8
18
  2
ROUNDV
 10
60.4000
 20
20.6000
 30
0.0000
 41
1.2700
 42
1.2700
 43
1.0000
 50
0.0000
  0
INSERT
  8
18
  2
ROUNDV
 10
56.4000
 20
30.2000
 30
0.0000
 41
1.2700
 42
1.2700
 43
1.0000
 50
0.0000
  0
INSERT
  8
18
  2
ROUNDV
 10
39.8000
 20
34.8000
 30
0.0000
 41
1.2700
 42
1.2700
 43
1.0000
 50
0.0000
  0
INSERT
  8
18
  2
ROUNDV
 10
20.2000
 20
11.0000
 30
0.0000
 41
1.2700
 42
1.2700
 43
1.0000
 50
0.0000
  0
ENDSEC
  0
EOF
